<svg xmlns="http://www.w3.org/2000/svg" viewBox="0 0 387.31 525.57"><defs><style>.cls-1,.cls-2,.cls-3,.cls-4{stroke:#000;stroke-miterlimit:10;stroke-width:5px;}.cls-2{fill:#fff;}.cls-3{fill:none;}.cls-4{fill:#f06;}</style></defs><title>404</title><g id="Camada_2" data-name="Camada 2"><g id="Camada_1-2" data-name="Camada 1"><rect class="cls-1" x="14.58" y="12.78" width="370.22" height="510.29" rx="12.87"/><rect class="cls-2" x="2.5" y="2.5" width="370.22" height="510.29" rx="12.87"/><rect class="cls-3" x="43.45" y="56.55" width="288.33" height="353.8" rx="12.87"/><path class="cls-4" d="M260,161.11h0a13,13,0,0,0-18.33,0l-54,54-54-54a13,13,0,0,0-18.32,0h0a13,13,0,0,0,0,18.33l54,54-54,54a13,13,0,0,0,0,18.33h0a13,13,0,0,0,18.32,0l54-54,54,54a13,13,0,0,0,18.33,0h0a13,13,0,0,0,0-18.33l-54-54,54-54A13,13,0,0,0,260,161.11Z"/></g></g></svg>