<svg xmlns="http://www.w3.org/2000/svg" viewBox="0 0 1770.82 525.57"><defs><style>.cls-1,.cls-2,.cls-3,.cls-4,.cls-5,.cls-6,.cls-7{stroke:#000;stroke-miterlimit:10;stroke-width:5px;}.cls-2{fill:#fff;}.cls-3,.cls-4,.cls-5{fill:none;}.cls-3,.cls-4{stroke-linecap:round;}.cls-4{stroke-dasharray:24.65 24.65;}.cls-6{fill:#f06;}.cls-7{fill:#fdc62d;}</style></defs><title>Ativo 2</title><g id="Camada_2" data-name="Camada 2"><g id="Camada_1-2" data-name="Camada 1"><path class="cls-1" d="M796.72,295.79,883,414.72a3,3,0,0,0,4.91,0l86.43-119.21a3,3,0,0,0-4-4.42Q952,301.52,933.61,312.16,910,325.79,886.92,339.42a3,3,0,0,1-3,0q-23.62-13.56-47.35-27.28-18-10.38-35.83-20.77A3,3,0,0,0,796.72,295.79Z"/><path class="cls-1" d="M883.84,321,791,267.53a3,3,0,0,1-1.08-4.21L882.84,111a3,3,0,0,1,5.16,0l92.88,149.06a3,3,0,0,1-1,4.2L886.94,321A3,3,0,0,1,883.84,321Z"/><line class="cls-1" x1="885.41" y1="321.45" x2="885.41" y2="109.59"/><line class="cls-1" x1="885.41" y1="415.97" x2="885.41" y2="339.84"/><rect class="cls-1" x="1398.1" y="12.78" width="370.22" height="510.29" rx="12.87"/><rect class="cls-2" x="1386.01" y="2.5" width="370.22" height="510.29" rx="12.87"/><line class="cls-3" x1="1017.36" y1="262.78" x2="1029.86" y2="262.78"/><line class="cls-4" x1="1054.51" y1="262.78" x2="1338.04" y2="262.78"/><line class="cls-3" x1="1350.37" y1="262.78" x2="1362.87" y2="262.78"/><path class="cls-2" d="M790,295.79l86.22,118.93a3,3,0,0,0,4.91,0l86.43-119.21a3,3,0,0,0-3.95-4.42q-18.3,10.43-36.72,21.07-23.58,13.63-46.7,27.26a3,3,0,0,1-3,0q-23.64-13.56-47.36-27.28-18-10.38-35.82-20.77A3,3,0,0,0,790,295.79Z"/><path class="cls-2" d="M877.11,321l-92.85-53.51a3,3,0,0,1-1.07-4.21L876.1,111a3,3,0,0,1,5.17,0l92.87,149.06a3,3,0,0,1-1,4.2L880.2,321A3,3,0,0,1,877.11,321Z"/><line class="cls-2" x1="878.67" y1="321.45" x2="878.67" y2="109.59"/><line class="cls-2" x1="878.67" y1="415.97" x2="878.67" y2="339.84"/><line class="cls-3" x1="746.61" y1="262.78" x2="734.11" y2="262.78"/><line class="cls-4" x1="709.45" y1="262.78" x2="425.93" y2="262.78"/><line class="cls-3" x1="413.6" y1="262.78" x2="401.1" y2="262.78"/><rect class="cls-1" x="14.58" y="12.78" width="370.22" height="510.29" rx="12.87"/><rect class="cls-2" x="2.5" y="2.5" width="370.22" height="510.29" rx="12.87"/><rect class="cls-5" x="1426.96" y="56.55" width="288.33" height="353.8" rx="12.87"/><path class="cls-6" d="M1553.1,328.49l-79.21-79.22a24.42,24.42,0,0,1-2.23-2.54c-26.78-35.84-17.93-84.38,12.54-105,24.29-16.44,60.38-13.8,86.47,8.36,26.94-23.67,66.49-24.13,91.85-3,28.39,23.67,32.77,69.24,6.83,100.16-.46.55-.94,1.07-1.45,1.57l-79.66,79.66A24.85,24.85,0,0,1,1553.1,328.49Z"/><circle class="cls-2" cx="1538.75" cy="205.92" r="19.36"/><circle class="cls-1" cx="1603.5" cy="205.92" r="19.36"/><path class="cls-3" d="M1530.79,254.21a62.23,62.23,0,0,0,80.67,0"/><rect class="cls-5" x="43.45" y="56.55" width="288.33" height="353.8" rx="12.87"/><path class="cls-7" d="M192.55,153.06,221.37,111a6,6,0,0,1,10.91,3.55l-1.41,51a6,6,0,0,0,8,5.8l48-17.09a6,6,0,0,1,6.75,9.29l-31.1,40.4a6,6,0,0,0,3.05,9.39l48.91,14.41a6,6,0,0,1,0,11.48L265.6,253.6a6,6,0,0,0-3.05,9.39l31.1,40.41a6,6,0,0,1-6.75,9.29l-48-17.1a6,6,0,0,0-8,5.81l1.41,51a6,6,0,0,1-10.91,3.55l-28.82-42.07a6,6,0,0,0-9.88,0l-28.81,42.07a6,6,0,0,1-10.92-3.55l1.41-51a6,6,0,0,0-8-5.81l-48,17.1a6,6,0,0,1-6.75-9.29L112.67,263a6,6,0,0,0-3-9.39L60.71,239.19a6,6,0,0,1,0-11.48l48.91-14.41a6,6,0,0,0,3-9.39l-31.1-40.4a6,6,0,0,1,6.75-9.29l48,17.09a6,6,0,0,0,8-5.8l-1.41-51A6,6,0,0,1,153.86,111l28.81,42.07A6,6,0,0,0,192.55,153.06Z"/><circle class="cls-2" cx="161.04" cy="215.49" r="15.89"/><circle class="cls-2" cx="214.18" cy="215.49" r="15.89"/><path class="cls-3" d="M154.51,255.12a51.07,51.07,0,0,0,66.2,0"/></g></g></svg>