<svg xmlns="http://www.w3.org/2000/svg" viewBox="0 0 679.11 304.68"><defs><style>.cls-1,.cls-2{stroke:#000;stroke-miterlimit:10;stroke-width:5px;}.cls-2{fill:#fff;}</style></defs><title>atv2</title><g id="Camada_2" data-name="Camada 2"><g id="Camada_1-2" data-name="Camada 1"><path class="cls-1" d="M568.08,200.24H115a13.43,13.43,0,0,0-8.3,2.88L11.57,278.3a13.37,13.37,0,0,0-5.09,10.5h0a13.38,13.38,0,0,0,13.38,13.38H663.23a13.38,13.38,0,0,0,13.38-13.38h0a13.39,13.39,0,0,0-5.08-10.5l-95.16-75.18A13.4,13.4,0,0,0,568.08,200.24Z"/><path class="cls-2" d="M564.09,196.92H111a13.37,13.37,0,0,0-8.3,2.88L7.58,275a13.39,13.39,0,0,0-5.08,10.5h0a13.38,13.38,0,0,0,13.38,13.38H659.25a13.38,13.38,0,0,0,13.38-13.38h0a13.39,13.39,0,0,0-5.08-10.5L572.39,199.8A13.37,13.37,0,0,0,564.09,196.92Z"/><ellipse class="cls-2" cx="337.57" cy="232.49" rx="210.82" ry="23.04"/><line class="cls-2" x1="2.5" y1="279" x2="672.63" y2="279"/><path class="cls-1" d="M273.67,142,338.24,231a2.27,2.27,0,0,0,3.68,0l64.73-89.28a2.27,2.27,0,0,0-3-3.31q-13.69,7.8-27.5,15.78-17.65,10.22-35,20.42a2.27,2.27,0,0,1-2.28,0q-17.7-10.15-35.47-20.43-13.46-7.77-26.83-15.55A2.26,2.26,0,0,0,273.67,142Z"/><path class="cls-1" d="M338.91,160.86l-69.53-40.08a2.26,2.26,0,0,1-.8-3.15l69.58-114a2.28,2.28,0,0,1,3.87,0l69.56,111.64a2.27,2.27,0,0,1-.75,3.14l-69.61,42.48A2.25,2.25,0,0,1,338.91,160.86Z"/><line class="cls-1" x1="340.08" y1="161.17" x2="340.08" y2="2.5"/><line class="cls-1" x1="340.08" y1="231.96" x2="340.08" y2="174.94"/><path class="cls-2" d="M268.62,142,333.2,231a2.27,2.27,0,0,0,3.68,0l64.72-89.28a2.27,2.27,0,0,0-3-3.31q-13.69,7.8-27.5,15.78-17.65,10.22-35,20.42a2.27,2.27,0,0,1-2.28,0q-17.7-10.15-35.47-20.43Q285,146.44,271.6,138.66A2.27,2.27,0,0,0,268.62,142Z"/><path class="cls-2" d="M333.87,160.86l-69.53-40.08a2.27,2.27,0,0,1-.81-3.15l69.59-114a2.27,2.27,0,0,1,3.86,0l69.56,111.64a2.27,2.27,0,0,1-.74,3.14l-69.61,42.48A2.25,2.25,0,0,1,333.87,160.86Z"/><line class="cls-2" x1="335.04" y1="161.17" x2="335.04" y2="2.5"/><line class="cls-2" x1="335.04" y1="231.96" x2="335.04" y2="174.94"/></g></g></svg>