<svg xmlns="http://www.w3.org/2000/svg" viewBox="0 0 1265.11 580.72"><defs><style>.cls-1,.cls-2,.cls-3,.cls-4,.cls-5,.cls-6,.cls-7{stroke:#000;stroke-miterlimit:10;stroke-width:5px;}.cls-2{fill:#fff;}.cls-3,.cls-5,.cls-6,.cls-7{fill:none;}.cls-4{fill:#fdc62d;}.cls-5{stroke-linecap:round;}.cls-6{stroke-dasharray:11.98 11.98;}.cls-7{stroke-dasharray:12;}</style></defs><title>instruction</title><g id="Camada_2" data-name="Camada 2"><g id="Camada_1-2" data-name="Camada 1"><rect class="cls-1" x="449.56" y="40.35" width="370.22" height="510.29" rx="12.87"/><rect class="cls-2" x="437.48" y="30.08" width="370.22" height="510.29" rx="12.87"/><rect class="cls-3" x="478.43" y="84.13" width="288.33" height="353.8" rx="12.87"/><path class="cls-4" d="M627.53,180.63l28.82-42.06a6,6,0,0,1,10.91,3.55l-1.41,51a6,6,0,0,0,8,5.8l48-17.09a6,6,0,0,1,6.75,9.28l-31.1,40.41a6,6,0,0,0,3.05,9.39l48.91,14.41a6,6,0,0,1,0,11.48l-48.91,14.41a6,6,0,0,0-3.05,9.39L728.63,331a6,6,0,0,1-6.75,9.28l-48-17.09a6,6,0,0,0-8,5.8l1.41,51a6,6,0,0,1-10.91,3.55l-28.82-42.06a6,6,0,0,0-9.88,0l-28.81,42.06a6,6,0,0,1-10.92-3.55l1.41-51a6,6,0,0,0-8-5.8l-48,17.09a6,6,0,0,1-6.75-9.28l31.1-40.41a6,6,0,0,0-3-9.39l-48.91-14.41a6,6,0,0,1,0-11.48l48.91-14.41a6,6,0,0,0,3-9.39l-31.1-40.41a6,6,0,0,1,6.75-9.28l48,17.09a6,6,0,0,0,8-5.8l-1.41-51a6,6,0,0,1,10.92-3.55l28.81,42.06A6,6,0,0,0,627.53,180.63Z"/><circle class="cls-2" cx="596.02" cy="243.07" r="15.89"/><circle class="cls-2" cx="649.16" cy="243.07" r="15.89"/><path class="cls-5" d="M589.49,282.7a51.07,51.07,0,0,0,66.2,0"/><rect class="cls-6" x="419.79" y="2.5" width="417.69" height="575.72" rx="12.87"/><line class="cls-7" x1="845.74" y1="171.48" x2="1052.29" y2="171.48"/><line class="cls-3" x1="259.32" y1="455.83" x2="465.87" y2="455.83"/><path class="cls-1" d="M1078,204.5l86.22,118.92a3,3,0,0,0,4.91,0l86.43-119.21a3,3,0,0,0-4-4.42q-18.3,10.43-36.72,21.07-23.58,13.63-46.7,27.26a3,3,0,0,1-3,0q-23.64-13.56-47.36-27.28-18-10.38-35.82-20.77A3,3,0,0,0,1078,204.5Z"/><path class="cls-1" d="M1165.11,229.74l-92.85-53.51a3,3,0,0,1-1.07-4.21l92.92-152.28a3,3,0,0,1,5.16,0l92.88,149.06a3,3,0,0,1-1,4.2l-93,56.72A3,3,0,0,1,1165.11,229.74Z"/><line class="cls-1" x1="1166.67" y1="230.15" x2="1166.67" y2="18.29"/><line class="cls-1" x1="1166.67" y1="324.67" x2="1166.67" y2="248.54"/><path class="cls-2" d="M1071.25,204.5l86.23,118.92a3,3,0,0,0,4.91,0q43.21-59.6,86.42-119.21a3,3,0,0,0-4-4.42q-18.28,10.43-36.72,21.07-23.57,13.63-46.69,27.26a3,3,0,0,1-3,0q-23.62-13.56-47.35-27.28-18-10.38-35.83-20.77A3,3,0,0,0,1071.25,204.5Z"/><path class="cls-2" d="M1158.37,229.74l-92.84-53.51a3,3,0,0,1-1.08-4.21l92.92-152.28a3,3,0,0,1,5.16,0l92.88,149.06a3,3,0,0,1-1,4.2l-93,56.72A3,3,0,0,1,1158.37,229.74Z"/><line class="cls-2" x1="1159.93" y1="230.15" x2="1159.93" y2="18.29"/><line class="cls-2" x1="1159.93" y1="324.67" x2="1159.93" y2="248.54"/><path class="cls-1" d="M249.68,468.91v72.87c0,14.45-53.94,26.17-120.48,26.17S8.71,556.23,8.71,541.78V468.91Z"/><ellipse class="cls-1" cx="129.2" cy="468.91" rx="120.49" ry="26.16"/><path class="cls-1" d="M249.68,378v72.88c0,14.45-53.94,26.16-120.48,26.16S8.71,465.3,8.71,450.85V378Z"/><ellipse class="cls-1" cx="129.2" cy="377.98" rx="120.49" ry="26.16"/><path class="cls-2" d="M243.47,460.81v72.87c0,14.46-53.95,26.17-120.48,26.17S2.5,548.14,2.5,533.68V460.81Z"/><ellipse class="cls-2" cx="122.99" cy="460.81" rx="120.49" ry="26.16"/><path class="cls-2" d="M243.47,369.88v72.87c0,14.45-53.95,26.16-120.48,26.16S2.5,457.2,2.5,442.75V369.88Z"/><ellipse class="cls-2" cx="122.99" cy="369.88" rx="120.49" ry="26.16"/></g></g></svg>