<svg xmlns="http://www.w3.org/2000/svg" viewBox="0 0 649.13 143.33"><defs><style>.cls-1,.cls-2{fill:#fdc62d;}.cls-1,.cls-2,.cls-3{stroke:#000;stroke-miterlimit:10;stroke-width:5px;}.cls-2{stroke-linecap:round;}.cls-3{fill:#fff;}</style></defs><title>try2</title><g id="Camada_2" data-name="Camada 2"><g id="Camada_1-2" data-name="Camada 1"><circle class="cls-1" cx="69.74" cy="69.74" r="67.23"/><path class="cls-2" d="M43.11,103.67a59.88,59.88,0,0,0,40.49-2.84A59.9,59.9,0,0,0,112.81,72.2"/><circle class="cls-3" cx="43" cy="66.98" r="16.89"/><circle class="cls-3" cx="84.19" cy="48.39" r="16.89"/><path d="M190.22,66.25l-12.1-23.11H178V66.25h-20.2V1.82h30A29.63,29.63,0,0,1,201.23,4.6a19.31,19.31,0,0,1,8.33,7.55,21.08,21.08,0,0,1,2.77,10.78,19.14,19.14,0,0,1-3.59,11.47,19.78,19.78,0,0,1-10.33,7.19l14,24.66ZM178,29.67h8a6.3,6.3,0,0,0,4.36-1.32,5.33,5.33,0,0,0,1.46-4.14,5.33,5.33,0,0,0-1.5-4A6,6,0,0,0,186,18.75h-8Z"/><path d="M239,17.93v7.92h20V41H239v9.1h22.75V66.25H218.8V1.82h42.95V17.93Z"/><path d="M308.89,23.84a7.9,7.9,0,0,0-3.37-2.95,12.13,12.13,0,0,0-5.28-1.05q-5.82,0-9,3.78T288.05,34q0,7.54,3.55,11.28T302.52,49a13.48,13.48,0,0,0,11.28-5.64H297.69V29h32.85v20.2A38.65,38.65,0,0,1,319,61.56q-7.38,5.14-18.66,5.15a35.11,35.11,0,0,1-17.43-4.15A28.11,28.11,0,0,1,271.53,51a35.7,35.7,0,0,1-4-17,35.74,35.74,0,0,1,4-17,28.14,28.14,0,0,1,11.33-11.6,34.73,34.73,0,0,1,17.29-4.15q12.64,0,20.61,6.1a24.21,24.21,0,0,1,9.42,16.56Z"/><path d="M379.14,56.51H357.66l-3.18,9.74H333.27L356.84,1.82h23.3l23.48,64.43h-21.3Zm-4.92-15.19L368.4,23.39l-5.83,17.93Z"/><path d="M440.56,66.25l-12.1-23.11h-.09V66.25h-20.2V1.82h30A29.63,29.63,0,0,1,451.57,4.6a19.31,19.31,0,0,1,8.33,7.55,21.08,21.08,0,0,1,2.77,10.78,19.14,19.14,0,0,1-3.59,11.47,19.78,19.78,0,0,1-10.33,7.19l14,24.66ZM428.37,29.67h8a6.3,6.3,0,0,0,4.36-1.32,5.33,5.33,0,0,0,1.46-4.14,5.33,5.33,0,0,0-1.5-4,6,6,0,0,0-4.32-1.45h-8Z"/><path d="M513.68,5.92a28.78,28.78,0,0,1,11.69,11.37,33.23,33.23,0,0,1,4.1,16.56,33.56,33.56,0,0,1-4.1,16.57A29.52,29.52,0,0,1,513.68,62,35.82,35.82,0,0,1,496,66.25H469.14V1.82H496A36.77,36.77,0,0,1,513.68,5.92ZM505,44.5c2.67-2.49,4-6,4-10.65s-1.33-8.15-4-10.64-6.28-3.73-10.83-3.73h-4.82V48.23h4.82Q501,48.23,505,44.5Z"/><path d="M557,17.93v7.92h20V41H557v9.1H579.7V66.25h-43V1.82h43V17.93Z"/><path d="M649.13,66.25h-20.2l-21.38-32.4v32.4H587.34V1.82h20.21l21.38,32.94V1.82h20.2Z"/><path d="M219.61,143.33h-20.2L178,110.93v32.4h-20.2V78.9H178l21.38,32.94V78.9h20.2Z"/><path d="M274.21,78.9v16H248.92v8.92h18.2V119h-18.2v24.3H228.71V78.9Z"/><path d="M331.64,78.9v16H314.53v48.41h-20.2V94.92H277.4v-16Z"/></g></g></svg>