<svg xmlns="http://www.w3.org/2000/svg" viewBox="0 0 752.12 152.17"><defs><style>.cls-1,.cls-2{fill:#fdc62d;}.cls-1,.cls-2,.cls-3{stroke:#000;stroke-miterlimit:10;stroke-width:5px;}.cls-2{stroke-linecap:round;}.cls-3{fill:#fff;}</style></defs><title>logo_2</title><g id="Camada_2" data-name="Camada 2"><g id="Camada_1-2" data-name="Camada 1"><circle class="cls-1" cx="74.9" cy="74.9" r="72.39"/><path class="cls-2" d="M46.23,111.43a64.42,64.42,0,0,0,43.6-3.06,64.48,64.48,0,0,0,31.44-30.82"/><circle class="cls-3" cx="46.11" cy="71.93" r="18.19"/><circle class="cls-3" cx="90.45" cy="51.91" r="18.19"/><path d="M188.5,41h17.17q14.36,0,19.46,1.17a22.24,22.24,0,0,1,12.48,7.54A21.51,21.51,0,0,1,242.41,64a23,23,0,0,1-3.31,12.38,20.72,20.72,0,0,1-9.46,8.06q-6.15,2.73-17,2.79l31,40H233l-31-40h-4.87v40H188.5Zm8.62,8.43v29.3l14.85.12q8.63,0,12.76-1.64A13.26,13.26,0,0,0,231.19,72a14.58,14.58,0,0,0,2.31-8.05,14,14,0,0,0-2.34-7.88A13,13,0,0,0,225,51q-3.81-1.53-12.67-1.53Z"/><path d="M313.19,106.06l6.92,3.63a37.76,37.76,0,0,1-7.86,10.78,31.4,31.4,0,0,1-10,6.24,34.92,34.92,0,0,1-12.61,2.14q-15.6,0-24.4-10.23a34.5,34.5,0,0,1-8.8-23.11,34.11,34.11,0,0,1,7.45-21.62q9.45-12.07,25.28-12.07,16.31,0,26,12.36,6.92,8.73,7,21.8H264.85q.24,11.1,7.1,18.21a22.67,22.67,0,0,0,17,7.1,27.22,27.22,0,0,0,9.47-1.69,24.89,24.89,0,0,0,7.83-4.5A38.06,38.06,0,0,0,313.19,106.06Zm0-17.17a27.16,27.16,0,0,0-4.78-10.49,22.57,22.57,0,0,0-8.3-6.33,25.44,25.44,0,0,0-10.85-2.4,23.4,23.4,0,0,0-16.14,6q-4.92,4.39-7.45,13.19Z"/><path d="M392.47,63.46h8.2v50.8q0,13.41-2.34,19.63a25.51,25.51,0,0,1-11.19,13.53q-8,4.76-19.16,4.75a44.05,44.05,0,0,1-14.74-2.32,29.49,29.49,0,0,1-10.63-6.23,37,37,0,0,1-7.56-11.43H344a23.56,23.56,0,0,0,9.39,9.37q5.75,3,14.26,3.05a29.46,29.46,0,0,0,14.16-3.12,19.26,19.26,0,0,0,8.25-7.86q2.46-4.73,2.46-15.27v-3.28a31,31,0,0,1-11.32,9,33.57,33.57,0,0,1-30.74-1.23,31,31,0,0,1-12-11.75,32.05,32.05,0,0,1-4.22-16.23,33.17,33.17,0,0,1,33-33,30.4,30.4,0,0,1,13.34,3,36.7,36.7,0,0,1,11.94,9.75Zm-24.2,6.27a25.91,25.91,0,0,0-12.95,3.37A24.37,24.37,0,0,0,346,82.41a25.48,25.48,0,0,0-3.4,12.86,23.19,23.19,0,0,0,7,17.35q7,6.85,18.22,6.85T386,112.68q6.88-6.8,6.89-17.87a25.89,25.89,0,0,0-3.16-12.87,23.06,23.06,0,0,0-9-8.93A24.92,24.92,0,0,0,368.27,69.73Z"/><path d="M481.77,63.46v63.75h-8.09v-11a35,35,0,0,1-11.57,9.43A32.3,32.3,0,0,1,425,119a32.88,32.88,0,0,1-9.58-23.87,32.31,32.31,0,0,1,9.67-23.56,31.52,31.52,0,0,1,23.26-9.78,30.06,30.06,0,0,1,14.21,3.34,32.15,32.15,0,0,1,11.16,10V63.46ZM449,69.73a24.71,24.71,0,0,0-21.86,12.82,25.85,25.85,0,0,0,0,25.75,25.26,25.26,0,0,0,9.28,9.57,24.26,24.26,0,0,0,12.49,3.42,25.64,25.64,0,0,0,12.76-3.39,23.84,23.84,0,0,0,9.28-9.19,26.32,26.32,0,0,0,3.25-13,25.37,25.37,0,0,0-7.29-18.5A24.16,24.16,0,0,0,449,69.73Z"/><path d="M497.12,63.46h8.38v9.31a29.39,29.39,0,0,1,7.91-8.23,15.63,15.63,0,0,1,8.67-2.72A14.89,14.89,0,0,1,529.34,64l-4.27,6.91a11.47,11.47,0,0,0-4.34-1.11,11.85,11.85,0,0,0-7.91,3.37Q509,76.52,507,83.61q-1.53,5.46-1.52,22v21.56h-8.38Z"/><path d="M600,38.85v88.36h-8.09v-11a34.92,34.92,0,0,1-11.57,9.43A32.3,32.3,0,0,1,543.14,119a32.92,32.92,0,0,1-9.58-23.87,32.35,32.35,0,0,1,9.67-23.56,31.54,31.54,0,0,1,23.26-9.78,30,30,0,0,1,14.21,3.34,32.15,32.15,0,0,1,11.16,10V38.85ZM567.17,69.73a24.71,24.71,0,0,0-21.86,12.82,25.78,25.78,0,0,0,0,25.75,25.23,25.23,0,0,0,9.27,9.57,24.27,24.27,0,0,0,12.5,3.42,25.64,25.64,0,0,0,12.76-3.39,23.74,23.74,0,0,0,9.27-9.19,26.22,26.22,0,0,0,3.25-13,25.37,25.37,0,0,0-7.29-18.5A24.12,24.12,0,0,0,567.17,69.73Z"/><path d="M672.2,106.06l6.91,3.63a37.76,37.76,0,0,1-7.86,10.78,31.29,31.29,0,0,1-10,6.24,34.88,34.88,0,0,1-12.61,2.14q-15.6,0-24.39-10.23a34.45,34.45,0,0,1-8.8-23.11,34.05,34.05,0,0,1,7.45-21.62q9.43-12.07,25.27-12.07,16.3,0,26,12.36,6.93,8.73,7,21.8H623.86q.23,11.1,7.09,18.21a22.67,22.67,0,0,0,17,7.1,27.22,27.22,0,0,0,9.47-1.69,24.89,24.89,0,0,0,7.83-4.5A38.05,38.05,0,0,0,672.2,106.06Zm0-17.17a27.17,27.17,0,0,0-4.79-10.49,22.57,22.57,0,0,0-8.3-6.33,25.44,25.44,0,0,0-10.85-2.4,23.36,23.36,0,0,0-16.13,6q-4.93,4.39-7.45,13.19Z"/><path d="M696.51,63.46h8.21V74.88a34.36,34.36,0,0,1,10.89-9.81,26.77,26.77,0,0,1,13-3.25,22.62,22.62,0,0,1,12.69,3.63,21.61,21.61,0,0,1,8.17,9.79q2.64,6.15,2.64,19.16v32.81h-8.21V96.8q0-11-.91-14.71-1.43-6.33-5.47-9.52T727,69.38a20.25,20.25,0,0,0-13.34,4.92,23.07,23.07,0,0,0-7.76,12.19q-1.17,4.74-1.17,17.34v23.38h-8.21Z"/></g></g></svg>