<svg xmlns="http://www.w3.org/2000/svg" viewBox="0 0 1199.1 570.96"><defs><style>.cls-1,.cls-2{stroke:#000;stroke-miterlimit:10;stroke-width:5px;}.cls-2{fill:#fff;}</style></defs><title>power</title><g id="Camada_2" data-name="Camada 2"><g id="Camada_1-2" data-name="Camada 1"><rect class="cls-1" x="82.07" y="320.92" width="68.56" height="276.9" rx="34.28" transform="translate(358.9 52.28) rotate(45)"/><path class="cls-1" d="M149,226.38,74.15,301.19c-29.4,29.4-8.39,98.1,46.95,153.43s124,76.35,153.43,46.95l74.81-74.82Z"/><path class="cls-1" d="M207.83,44.1,86.94,165C39.42,212.5,73.38,323.51,162.8,412.92S363.22,536.3,410.74,488.78L531.62,367.89Z"/><ellipse class="cls-1" cx="369.73" cy="205.99" rx="121.68" ry="228.96" transform="translate(-37.37 321.77) rotate(-45)"/><rect x="306.56" y="85.54" width="45.3" height="138.36" rx="4.44" transform="matrix(0.57, 0.82, -0.82, 0.57, 267.12, -203.7)"/><rect x="398.35" y="177.33" width="45.3" height="138.36" rx="4.44" transform="translate(217.53 -196.89) rotate(35)"/><rect class="cls-1" x="1054.38" y="-10.25" width="68.56" height="276.9" rx="34.28" transform="translate(1767.81 988.66) rotate(-135)"/><path class="cls-1" d="M1060.79,356.45l74.81-74.81c29.41-29.41,8.4-98.1-46.94-153.44s-124-76.35-153.43-46.94l-74.81,74.81Z"/><path class="cls-1" d="M1001.93,538.73l120.89-120.89c47.52-47.52,13.55-158.52-75.86-247.94S846.54,46.53,799,94.05L678.13,214.94Z"/><ellipse class="cls-1" cx="840.03" cy="376.83" rx="121.68" ry="228.96" transform="translate(-20.42 704.36) rotate(-45)"/><rect class="cls-1" x="797.76" y="384.18" width="45.3" height="208.12" rx="22.65" transform="translate(1055.29 1413.6) rotate(-135)"/><rect class="cls-1" x="705.97" y="292.4" width="45.3" height="208.12" rx="22.65" transform="translate(963.5 1192.01) rotate(-135)"/><rect class="cls-2" x="76.16" y="303.16" width="68.56" height="276.9" rx="34.28" transform="translate(344.61 51.25) rotate(45)"/><path class="cls-2" d="M143.06,208.61,68.25,283.42c-29.41,29.41-8.39,98.11,46.94,153.44s124,76.35,153.43,46.94L343.44,409Z"/><path class="cls-2" d="M201.92,26.33,81,147.22c-47.52,47.52-13.56,158.53,75.85,247.94S357.31,518.53,404.83,471L525.72,350.13Z"/><ellipse class="cls-2" cx="363.82" cy="188.23" rx="121.68" ry="228.96" transform="translate(-26.54 312.39) rotate(-45)"/><rect x="300.65" y="67.78" width="45.3" height="138.36" rx="22.65" transform="translate(250.05 -206.43) rotate(55)"/><rect x="392.44" y="159.56" width="45.3" height="138.36" rx="22.65" transform="translate(206.27 -196.72) rotate(35)"/><rect class="cls-2" x="1048.48" y="-28.01" width="68.56" height="276.9" rx="34.28" transform="translate(1770.28 954.15) rotate(-135)"/><path class="cls-2" d="M1054.89,338.69l74.81-74.81c29.4-29.41,8.39-98.11-47-153.44s-124-76.35-153.43-46.94l-74.81,74.81Z"/><path class="cls-2" d="M996,521l120.89-120.89c47.52-47.52,13.56-158.53-75.86-247.94S840.63,28.77,793.11,76.29L672.23,197.17Z"/><ellipse class="cls-2" cx="834.12" cy="359.07" rx="121.68" ry="228.96" transform="translate(-9.59 694.98) rotate(-45)"/><rect class="cls-2" x="791.85" y="366.42" width="45.3" height="208.12" rx="22.65" transform="translate(1057.76 1379.1) rotate(-135)"/><rect class="cls-2" x="700.06" y="274.63" width="45.3" height="208.12" rx="22.65" transform="translate(965.97 1157.5) rotate(-135)"/></g></g></svg>