<svg xmlns="http://www.w3.org/2000/svg" viewBox="0 0 273.49 132.52"><defs><style>.cls-1,.cls-2{stroke:#000;stroke-miterlimit:10;stroke-width:5px;}.cls-2{fill:#fff;}</style></defs><title>tomada_1</title><g id="Camada_2" data-name="Camada 2"><g id="Camada_1-2" data-name="Camada 1"><rect class="cls-1" x="20.39" y="74.1" width="15.41" height="62.26" rx="7.71" transform="translate(82.64 10.95) rotate(45)"/><path class="cls-1" d="M35.43,52.84,18.61,69.66c-6.61,6.61-1.89,22.06,10.56,34.5s27.88,17.16,34.5,10.55L80.49,97.89Z"/><path class="cls-1" d="M48.67,11.85,21.49,39c-10.69,10.69-3,35.65,17.05,55.75s45.07,27.74,55.75,17.06l27.18-27.18Z"/><ellipse class="cls-1" cx="85.07" cy="48.25" rx="27.36" ry="51.48" transform="translate(-9.2 74.29) rotate(-45)"/><rect x="70.87" y="21.17" width="10.19" height="31.11" rx="4.44" transform="translate(62.48 -46.56) rotate(55)"/><rect x="91.5" y="41.81" width="10.19" height="31.11" rx="4.44" transform="translate(50.37 -45.03) rotate(35)"/><rect class="cls-1" x="239.01" y="-0.37" width="15.41" height="62.26" rx="7.71" transform="translate(399.42 226.97) rotate(-135)"/><path class="cls-1" d="M240.45,82.08l16.82-16.82c6.62-6.61,1.89-22.05-10.55-34.5s-27.89-17.16-34.5-10.55L195.4,37Z"/><path class="cls-1" d="M227.22,123.07,254.4,95.89c10.68-10.69,3-35.65-17.06-55.75S192.28,12.4,181.59,23.08L154.41,50.27Z"/><ellipse class="cls-1" cx="190.82" cy="86.67" rx="27.36" ry="51.48" transform="translate(-5.39 160.31) rotate(-45)"/><rect class="cls-1" x="181.31" y="88.32" width="10.19" height="46.8" rx="4.44" transform="translate(239.21 322.52) rotate(-135)"/><rect class="cls-1" x="160.67" y="67.68" width="10.19" height="46.8" rx="4.44" transform="translate(218.58 272.7) rotate(-135)"/><rect class="cls-2" x="19.06" y="70.1" width="15.41" height="62.26" rx="7.71" transform="translate(79.42 10.72) rotate(45)"/><path class="cls-2" d="M34.1,48.84,17.28,65.66c-6.61,6.62-1.88,22.06,10.56,34.5s27.88,17.17,34.5,10.56L79.16,93.9Z"/><path class="cls-2" d="M47.34,7.86,20.16,35C9.47,45.72,17.11,70.68,37.21,90.79s45.07,27.74,55.75,17l27.18-27.18Z"/><ellipse class="cls-2" cx="83.74" cy="44.26" rx="27.36" ry="51.48" transform="translate(-6.77 72.18) rotate(-45)"/><rect x="69.54" y="17.18" width="10.19" height="31.11" rx="4.44" transform="translate(58.64 -47.18) rotate(55)"/><rect x="90.18" y="37.82" width="10.19" height="31.11" rx="4.44" transform="translate(47.84 -44.99) rotate(35)"/><rect class="cls-2" x="237.68" y="-4.36" width="15.41" height="62.26" rx="7.71" transform="translate(399.98 219.22) rotate(-135)"/><path class="cls-2" d="M239.12,78.09,256,61.27c6.61-6.61,1.88-22.06-10.56-34.5S217.5,9.6,210.89,16.22L194.07,33Z"/><path class="cls-2" d="M225.89,119.08l27.18-27.19c10.68-10.68,3.05-35.64-17.06-55.74S191,8.41,180.27,19.09L153.08,46.27Z"/><ellipse class="cls-2" cx="189.49" cy="82.67" rx="27.36" ry="51.48" transform="translate(-2.96 158.2) rotate(-45)"/><rect class="cls-2" x="179.98" y="84.33" width="10.19" height="46.8" rx="4.44" transform="translate(239.77 314.76) rotate(-135)"/><rect class="cls-2" x="159.34" y="63.69" width="10.19" height="46.8" rx="4.44" transform="translate(219.13 264.94) rotate(-135)"/></g></g></svg>